<svg width="25" height="24" viewBox="0 0 25 24" fill="none" xmlns="http://www.w3.org/2000/svg">
<mask id="mask0_1612_22942" style="mask-type:alpha" maskUnits="userSpaceOnUse" x="0" y="0" width="25" height="24">
<rect x="24.5" y="24" width="24" height="24" transform="rotate(-180 24.5 24)" fill="#D9D9D9"/>
</mask>
<g mask="url(#mask0_1612_22942)">
<path d="M7.873 11.251L19.25 11.251C19.4628 11.251 19.641 11.3228 19.7845 11.4665C19.9282 11.61 20 11.7881 20 12.001C20 12.2138 19.9282 12.392 19.7845 12.5355C19.641 12.6791 19.4628 12.751 19.25 12.751L7.873 12.751L13.0423 17.9202C13.1909 18.0689 13.2643 18.2429 13.2625 18.4422C13.2605 18.6416 13.182 18.8188 13.027 18.974C12.8718 19.1188 12.6962 19.1938 12.5 19.199C12.3038 19.2041 12.1282 19.1291 11.973 18.974L5.63275 12.6337C5.53908 12.5401 5.47308 12.4413 5.43475 12.3375C5.39625 12.2336 5.377 12.1215 5.377 12.001C5.377 11.8805 5.39625 11.7683 5.43475 11.6645C5.47308 11.5606 5.53908 11.4619 5.63275 11.3682L11.973 5.02797C12.1115 4.88947 12.283 4.81863 12.4875 4.81547C12.692 4.8123 12.8718 4.88314 13.027 5.02797C13.182 5.18314 13.2595 5.3613 13.2595 5.56247C13.2595 5.7638 13.182 5.94205 13.027 6.09722L7.873 11.251Z" fill="white"/>
</g>
</svg>
