<svg width="640" height="238" viewBox="0 0 640 238" fill="none" xmlns="http://www.w3.org/2000/svg">
<path d="M15.04 192.56V157.36L119.68 7.59999H171.84V153.52H200V192.56H171.84V238H127.04V192.56H15.04ZM129.92 55.6L64.32 153.52H129.92V55.6ZM228.523 118.32C228.523 81.4133 235.136 52.5067 248.363 31.6C261.803 10.6933 283.989 0.23999 314.923 0.23999C345.856 0.23999 367.936 10.6933 381.163 31.6C394.603 52.5067 401.323 81.4133 401.323 118.32C401.323 155.44 394.603 184.56 381.163 205.68C367.936 226.8 345.856 237.36 314.923 237.36C283.989 237.36 261.803 226.8 248.363 205.68C235.136 184.56 228.523 155.44 228.523 118.32ZM357.163 118.32C357.163 102.533 356.096 89.3067 353.963 78.64C352.043 67.76 347.989 58.9067 341.803 52.08C335.829 45.2533 326.869 41.84 314.923 41.84C302.976 41.84 293.909 45.2533 287.723 52.08C281.749 58.9067 277.696 67.76 275.563 78.64C273.643 89.3067 272.683 102.533 272.683 118.32C272.683 134.533 273.643 148.187 275.563 159.28C277.483 170.16 281.536 179.013 287.723 185.84C293.909 192.453 302.976 195.76 314.923 195.76C326.869 195.76 335.936 192.453 342.123 185.84C348.309 179.013 352.363 170.16 354.283 159.28C356.203 148.187 357.163 134.533 357.163 118.32ZM433.478 192.56V157.36L538.118 7.59999H590.278V153.52H618.438V192.56H590.278V238H545.478V192.56H433.478ZM548.358 55.6L482.758 153.52H548.358V55.6Z" fill="#FF4C46" fill-opacity="0.4"/>
<path d="M25.04 192.56V157.36L129.68 7.59999H181.84V153.52H210V192.56H181.84V238H137.04V192.56H25.04ZM139.92 55.6L74.32 153.52H139.92V55.6ZM238.523 118.32C238.523 81.4133 245.136 52.5067 258.363 31.6C271.803 10.6933 293.989 0.23999 324.923 0.23999C355.856 0.23999 377.936 10.6933 391.163 31.6C404.603 52.5067 411.323 81.4133 411.323 118.32C411.323 155.44 404.603 184.56 391.163 205.68C377.936 226.8 355.856 237.36 324.923 237.36C293.989 237.36 271.803 226.8 258.363 205.68C245.136 184.56 238.523 155.44 238.523 118.32ZM367.163 118.32C367.163 102.533 366.096 89.3067 363.963 78.64C362.043 67.76 357.989 58.9067 351.803 52.08C345.829 45.2533 336.869 41.84 324.923 41.84C312.976 41.84 303.909 45.2533 297.723 52.08C291.749 58.9067 287.696 67.76 285.563 78.64C283.643 89.3067 282.683 102.533 282.683 118.32C282.683 134.533 283.643 148.187 285.563 159.28C287.483 170.16 291.536 179.013 297.723 185.84C303.909 192.453 312.976 195.76 324.923 195.76C336.869 195.76 345.936 192.453 352.123 185.84C358.309 179.013 362.363 170.16 364.283 159.28C366.203 148.187 367.163 134.533 367.163 118.32ZM443.478 192.56V157.36L548.118 7.59999H600.278V153.52H628.438V192.56H600.278V238H555.478V192.56H443.478ZM558.358 55.6L492.758 153.52H558.358V55.6Z" fill="#0D1428"/>
</svg>
